<?xml version="1.0" encoding="utf-8"?>
<!-- Generator: Adobe Illustrator 20.0.0, SVG Export Plug-In . SVG Version: 6.00 Build 0)  -->
<svg version="1.1" id="Layer_1" xmlns="http://www.w3.org/2000/svg" xmlns:xlink="http://www.w3.org/1999/xlink" x="0px" y="0px"
	 viewBox="0 0 202.3 202.3" style="enable-background:new 0 0 202.3 202.3;" xml:space="preserve">
<style type="text/css">
	.st0{fill:none;}
	.st1-1{fill:none;stroke:#0083c3;stroke-width:4;stroke-linecap:round;}
	.st1{fill:none;stroke:#0083c3;stroke-width:2;stroke-linecap:round;opacity:0.4}
	.st2{fill:none;stroke:#0083c3;stroke-width:2;stroke-linecap:round;opacity:0.4}
	.st3{display:none;fill:#0083c3;}
	.st4{fill:#0083c3;}
	
</style>
<rect x="8.4" y="8.8" class="st0" width="185.6" height="185.6"/>
<g>
	<circle class="st1-1" cx="101.1" cy="101.6" r="50"/>
</g>
<g>
	
		<animate  accumulate="none" additive="replace" attributeName="opacity" begin="0s" calcMode="linear" dur="2s" fill="remove" keyTimes="0;0.33;1" repeatCount="indefinite" restart="always" values="1;1;0">
		</animate>
	<circle class="st1" cx="101.1" cy="101.6" r="79">
	
		<animate  accumulate="none" additive="replace" attributeName="r" begin="0s" calcMode="linear" dur="2s" fill="remove" keyTimes="0;0.33;1" repeatCount="indefinite" restart="always" values="50;70;90">
		</animate>
	</circle>
</g>
<g>
	
		<animate  accumulate="none" additive="replace" attributeName="opacity" begin="1s" calcMode="linear" dur="2s" fill="remove" keyTimes="0;0.33;1" repeatCount="indefinite" restart="always" values="1;1;0">
		</animate>
	<circle class="st2" cx="101.1" cy="101.6" r="71.5">
	
		<animate  accumulate="none" additive="replace" attributeName="r" begin="1s" calcMode="linear" dur="2s" fill="remove" keyTimes="0;0.33;1" repeatCount="indefinite" restart="always" values="50;70;90">
		</animate>
	</circle>
</g>
<g>
	<path class="st3" d="M100.4,150.5c-27,0-48.9-22-48.9-48.9c0-27,22-48.9,48.9-48.9s48.9,22,48.9,48.9
		C149.4,128.6,127.4,150.5,100.4,150.5z M100.4,55.4c-25.5,0-46.2,20.7-46.2,46.2s20.7,46.2,46.2,46.2s46.2-20.7,46.2-46.2
		S125.9,55.4,100.4,55.4z"/>
	<g>
		<path class="st4" d="M89.7,122.2c-1.2,0-2.2,0.9-2.4,2c-0.3-0.5-0.9-0.9-1.5-0.9c-1,0-1.8,0.8-1.8,1.8s0.8,1.8,1.8,1.8
			c0.8,0,1.5-0.5,1.7-1.2c0.4,0.9,1.2,1.5,2.3,1.5c1.4,0,2.5-1.1,2.5-2.5C92.2,123.3,91.1,122.2,89.7,122.2z"/>
		<path class="st4" d="M116.5,123.6c-0.5,0-1,0.2-1.4,0.5c-0.3-1.1-1.4-1.9-2.6-1.9c-1.5,0-2.7,1.2-2.7,2.7s1.2,2.7,2.7,2.7
			c1,0,1.8-0.5,2.3-1.3c0.3,0.5,0.8,0.8,1.4,0.9c1,0.1,1.8-0.7,1.9-1.6C118.2,124.5,117.5,123.6,116.5,123.6z"/>
		<path class="st4" d="M74.1,84.3c0.2,0.8,0.9,1.3,1.7,1.3c0.8,0,1.6-0.6,1.7-1.4c0.2,0.6,0.7,1,1.4,1c0.6,0,1.1-0.4,1.3-0.9
			c0.1,0.4,0.5,0.6,0.9,0.6c0.5,0,0.9-0.4,0.9-0.9s-0.4-0.9-0.9-0.9c-0.3,0-0.6,0.2-0.8,0.5c-0.1-0.7-0.7-1.2-1.4-1.2
			c-0.7,0-1.2,0.4-1.4,1.1c-0.2-0.8-0.9-1.3-1.7-1.3c-0.9,0-1.6,0.6-1.7,1.5c-0.2-1.1-1.2-1.9-2.4-1.9c-1.4,0-2.5,1.1-2.5,2.5
			s1.1,2.5,2.5,2.5C72.9,86.5,74,85.5,74.1,84.3z"/>
		<path class="st4" d="M99.7,86.6c1.2,0,2.1-0.8,2.4-1.9c0.4,1.1,1.5,2,2.8,2c1.7,0,3-1.3,3-3c0-1.7-1.3-3-3-3c-1.5,0-2.7,1.1-3,2.5
			c-0.4-0.9-1.2-1.5-2.2-1.5c-1.4,0-2.5,1.1-2.5,2.5C97.2,85.5,98.3,86.6,99.7,86.6z"/>
		<path class="st4" d="M91.2,115c-1,0-1.9,0.4-2.5,1.1c-0.3-0.1-0.6-0.2-0.9-0.2c-0.7,0-1.3,0.3-1.7,0.7c-0.6-0.6-1.3-1-2.2-1
			c-1.1,0-2.1,0.6-2.6,1.5c-0.3-0.2-0.7-0.4-1.1-0.4c-1,0-1.8,0.8-1.8,1.8s0.8,1.8,1.8,1.8c0.4,0,0.7-0.1,1-0.3
			c0.5,1,1.5,1.7,2.7,1.7c1,0,1.9-0.5,2.5-1.3c0.4,0.3,0.9,0.5,1.5,0.5c0.3,0,0.6-0.1,0.9-0.2c0.6,0.7,1.6,1.2,2.6,1.2
			c1.9,0,3.4-1.5,3.4-3.4C94.6,116.5,93.1,115,91.2,115z"/>
		<path class="st4" d="M119.1,115.5c-0.9,0-1.6,0.3-2.2,0.8c-0.4-0.3-0.9-0.4-1.4-0.4c-0.6,0-1.1,0.2-1.5,0.6
			c-0.5-0.5-1.2-0.8-2-0.8c-0.7,0-1.3,0.2-1.8,0.6c-0.4-0.2-0.8-0.4-1.3-0.4c-1.4,0-2.5,1.1-2.5,2.5s1.1,2.5,2.5,2.5
			c0.3,0,0.6-0.1,0.9-0.2c0.6,0.6,1.4,1.1,2.3,1.1c1,0,1.8-0.5,2.4-1.2c0.4,0.2,0.8,0.3,1.2,0.3c0.2,0,0.5,0,0.7-0.1
			c0.6,1,1.7,1.7,2.9,1.7c1.9,0,3.4-1.5,3.4-3.4C122.5,117.1,121,115.5,119.1,115.5z"/>
		<path class="st4" d="M73.1,93c0.5,0,0.9-0.1,1.3-0.4c0.6,0.6,1.3,1,2.2,1s1.7-0.4,2.3-1c0.3,0.2,0.7,0.3,1.1,0.3
			c0.9,0,1.7-0.5,2.1-1.2c0.3,0.5,0.9,0.9,1.5,0.9c1,0,1.8-0.8,1.8-1.8S84.6,89,83.6,89c-0.5,0-1,0.2-1.3,0.6
			c-0.3-1-1.2-1.7-2.3-1.7c-0.5,0-1,0.2-1.4,0.4c-0.5-0.5-1.2-0.8-2-0.8c-0.8,0-1.6,0.3-2.1,0.9c-0.4-0.3-0.9-0.4-1.4-0.4
			c-1.4,0-2.5,1.1-2.5,2.5C70.6,91.9,71.7,93,73.1,93z"/>
		<path class="st4" d="M128.6,89c-0.5,0-0.9,0.2-1.2,0.4c-0.6-1-1.6-1.6-2.8-1.6c-1.5,0-2.7,1-3.1,2.3c-0.3-0.6-0.9-1-1.6-1
			c-1,0-1.8,0.8-1.8,1.8s0.8,1.8,1.8,1.8c0.6,0,1.2-0.3,1.5-0.8c0.3,1.5,1.6,2.5,3.2,2.5c1.3,0,2.4-0.8,3-1.8
			c0.3,0.2,0.7,0.3,1.1,0.3c1.1,0,2-0.9,2-2C130.5,89.9,129.6,89,128.6,89z"/>
		<path class="st4" d="M95.1,93.6c1.1,0,2-0.6,2.5-1.4c0.3,0.1,0.6,0.2,0.9,0.2c0.1,0,0.1,0,0.2,0c0.6,1.1,1.7,1.9,3,1.9
			c1.1,0,2.1-0.5,2.7-1.4c0.4,0.2,0.7,0.3,1.2,0.3c1.5,0,2.7-1.2,2.7-2.7s-1.2-2.7-2.7-2.7c-0.6,0-1.1,0.2-1.6,0.5
			c-0.6-0.6-1.4-0.9-2.3-0.9c-0.7,0-1.3,0.2-1.8,0.5c-0.4-0.3-0.9-0.4-1.4-0.4c-0.7,0-1.3,0.3-1.7,0.7c-0.4-0.4-1-0.6-1.7-0.6
			c-1.7,0-3,1.3-3,3S93.5,93.6,95.1,93.6z"/>
		<path class="st4" d="M123.7,110c-0.9,0-1.6,0.6-1.7,1.5c-0.3-1.4-1.5-2.4-2.9-2.4c-0.9,0-1.7,0.4-2.2,1c-0.6-0.9-1.7-1.5-2.9-1.5
			c-1.1,0-2,0.5-2.6,1.2c-0.6-0.8-1.6-1.4-2.8-1.4c-1.3,0-2.4,0.7-3,1.8c-0.3-0.2-0.6-0.3-0.9-0.3c-1,0-1.8,0.8-1.8,1.8
			s0.8,1.8,1.8,1.8c0.3,0,0.6-0.1,0.8-0.2c0.5,1.2,1.7,2,3.1,2c1.1,0,2-0.5,2.6-1.2c0.6,0.8,1.6,1.4,2.8,1.4c1.1,0,2.2-0.6,2.8-1.4
			c0.6,0.7,1.4,1.1,2.3,1.1c1.6,0,2.9-1.3,3-2.8c0.2,0.7,0.9,1.3,1.7,1.3c1,0,1.8-0.8,1.8-1.8C125.5,110.8,124.7,110,123.7,110z"/>
		<path class="st4" d="M98.4,109.4c-0.9,0-1.7,0.5-2.1,1.2c-0.3-0.4-0.8-0.7-1.4-0.7s-1.2,0.3-1.5,0.8c-0.4-0.8-1.2-1.4-2.2-1.4
			c-0.4,0-0.8,0.1-1.1,0.3c-0.6-0.8-1.6-1.3-2.7-1.3c-0.9,0-1.7,0.3-2.3,0.9c-0.4-0.3-0.9-0.4-1.5-0.4c-0.7,0-1.3,0.2-1.8,0.6
			c-0.5-0.4-1.2-0.7-1.9-0.7c-1.7,0-3,1.3-3,3s1.3,3,3,3c0.7,0,1.3-0.2,1.8-0.6c0.5,0.4,1.2,0.7,1.9,0.7c0.6,0,1.1-0.2,1.5-0.4
			c0.6,0.5,1.4,0.8,2.2,0.8c1.1,0,2-0.5,2.6-1.3c0.3,0.2,0.7,0.3,1.1,0.3c1,0,1.9-0.6,2.3-1.5c0.3,0.4,0.8,0.7,1.4,0.7
			c0.5,0,0.9-0.2,1.3-0.5c0.4,0.8,1.2,1.4,2.2,1.4c1.4,0,2.5-1.1,2.5-2.5C100.8,110.5,99.7,109.4,98.4,109.4z"/>
		<path class="st4" d="M125.2,102.6c-0.7,0-1.3,0.3-1.8,0.9c-0.3-0.2-0.7-0.4-1.1-0.4c-0.5,0-0.9,0.2-1.2,0.5
			c-0.4-0.7-1.2-1.2-2.1-1.2c-0.1,0-0.2,0-0.4,0c-0.7-0.7-1.6-1.2-2.7-1.2s-2.1,0.5-2.7,1.3c-0.2-0.1-0.5-0.1-0.8-0.1
			c-0.7,0-1.3,0.3-1.8,0.8c-0.4-0.4-1.1-0.7-1.7-0.7c-0.5,0-1,0.2-1.4,0.4c-0.4-0.9-1.4-1.4-2.4-1.4c-1.2,0-2.3,0.7-2.7,1.8
			c-0.3-0.3-0.7-0.5-1.2-0.5s-0.9,0.2-1.2,0.5c-0.4-0.7-1.2-1.3-2.1-1.3c-0.8,0-1.6,0.4-2,1c-0.4-0.6-1.1-0.9-1.9-0.9
			s-1.4,0.4-1.9,0.9c-0.3-0.2-0.6-0.3-0.9-0.3s-0.7,0.1-0.9,0.3c-0.5-0.8-1.4-1.3-2.4-1.3c-0.9,0-1.7,0.4-2.3,1
			c-0.4-0.4-1-0.7-1.7-0.7c-0.3,0-0.6,0.1-0.9,0.2c-0.6-0.7-1.5-1.1-2.5-1.1s-1.9,0.4-2.5,1.1c-0.2-0.1-0.4-0.1-0.7-0.1
			c-1.4,0-2.5,1.1-2.5,2.5s1.1,2.5,2.5,2.5c0.2,0,0.5,0,0.7-0.1c0.6,0.7,1.5,1.1,2.5,1.1s2-0.5,2.6-1.2c0.3,0.1,0.5,0.2,0.8,0.2
			c0.6,0,1.1-0.2,1.5-0.5c0.5,0.8,1.4,1.3,2.4,1.3c1.2,0,2.2-0.7,2.7-1.6c0.2,0.1,0.5,0.2,0.7,0.2c0.3,0,0.6-0.1,0.9-0.2
			c0.4,0.6,1.1,1,1.9,1s1.6-0.4,2-1c0.4,0.6,1.1,0.9,1.9,0.9c0.9,0,1.6-0.4,2.1-1.1c0.3,0.3,0.8,0.5,1.3,0.5s0.9-0.2,1.2-0.5
			c0.5,1,1.5,1.7,2.7,1.7c0.8,0,1.6-0.3,2.1-0.9c0.4,0.4,1.1,0.7,1.7,0.7c0.7,0,1.3-0.3,1.8-0.8c0.4,0.4,1.1,0.7,1.7,0.7
			c0.2,0,0.5,0,0.7-0.1c0.7,0.8,1.7,1.4,2.8,1.4c1.1,0,2-0.5,2.7-1.2c0.1,0,0.2,0,0.4,0c0.9,0,1.7-0.5,2.1-1.2
			c0.3,0.3,0.8,0.5,1.2,0.5c0.4,0,0.8-0.1,1.1-0.4c0.4,0.5,1,0.8,1.8,0.8c1.2,0,2.3-1,2.3-2.3C127.5,103.6,126.4,102.6,125.2,102.6z
			"/>
		<path class="st4" d="M75.6,100.2c0.4,0,0.8-0.1,1.1-0.3c0.5,0.6,1.3,0.9,2.2,0.9c0.8,0,1.6-0.3,2.1-0.9c0.4,0.3,0.9,0.5,1.5,0.5
			c1.1,0,2.1-0.8,2.4-1.8c0.3,0.6,0.9,1,1.6,1c1,0,1.8-0.8,1.8-1.8S87.5,96,86.5,96c-0.7,0-1.4,0.5-1.6,1.1
			c-0.3-0.9-1.2-1.6-2.3-1.6c-0.5,0-0.9,0.1-1.3,0.4c-0.6-0.7-1.4-1.1-2.3-1.1c-0.8,0-1.5,0.3-2,0.8c-0.4-0.2-0.8-0.4-1.3-0.4
			c-0.8,0-1.5,0.4-2,1c-0.2-0.1-0.5-0.2-0.8-0.2c-1,0-1.8,0.8-1.8,1.8s0.8,1.8,1.8,1.8c0.4,0,0.7-0.1,1-0.3
			C74.2,99.9,74.9,100.2,75.6,100.2z"/>
		<path class="st4" d="M94.2,100.3c0.6,0,1.1-0.2,1.5-0.5c0.6,0.7,1.4,1.1,2.3,1.1c0.7,0,1.4-0.3,2-0.7c0.3,0.2,0.7,0.3,1.1,0.3
			c0.5,0,0.9-0.1,1.2-0.3c0.6,0.6,1.5,1,2.4,1c1.2,0,2.3-0.6,2.9-1.6c0.3,0.2,0.7,0.4,1.1,0.4c1,0,1.8-0.8,1.8-1.8s-0.8-1.8-1.8-1.8
			c-0.3,0-0.5,0.1-0.8,0.2c-0.5-1.3-1.7-2.3-3.2-2.3c-1.2,0-2.2,0.6-2.8,1.5c-0.3-0.1-0.6-0.2-0.8-0.2c-0.3,0-0.7,0.1-1,0.2
			c-0.5-0.5-1.3-0.9-2.1-0.9c-0.9,0-1.7,0.4-2.3,1c-0.4-0.4-1-0.6-1.6-0.6c-1.4,0-2.5,1.1-2.5,2.5C91.7,99.2,92.8,100.3,94.2,100.3z
			"/>
		<path class="st4" d="M126.7,95.5c-0.7,0-1.3,0.3-1.7,0.7c-0.6-0.8-1.5-1.2-2.5-1.2c-1.1,0-2,0.5-2.6,1.4c-0.2,0-0.3-0.1-0.5-0.1
			c-0.6,0-1.1,0.3-1.4,0.7c-0.4-0.7-1.2-1.2-2.1-1.2c-1.4,0-2.5,1.1-2.5,2.5s1.1,2.5,2.5,2.5c1,0,1.8-0.6,2.2-1.4
			c0.3,0.3,0.8,0.6,1.3,0.6c0.1,0,0.2,0,0.3,0c0.5,1,1.6,1.7,2.9,1.7c1.2,0,2.2-0.6,2.8-1.5c0.4,0.3,0.9,0.5,1.5,0.5
			c1.4,0,2.5-1.1,2.5-2.5C129.2,96.6,128.1,95.5,126.7,95.5z"/>
		<path class="st4" d="M128.2,82.3c-0.1,0.1-0.3,0.2-0.4,0.4c-0.1,0.2-0.2,0.4-0.3,0.6c-0.3-0.5-0.8-0.8-1.4-0.8
			c-0.5,0-0.9,0.2-1.2,0.5c-0.4-0.8-1.3-1.2-2.3-1.1c-0.9,0.2-1.7,0.9-1.9,1.9c0,0.1,0,0.3,0,0.4c0-0.5-0.4-0.8-0.9-0.8
			s-0.9,0.4-0.9,0.9s0.4,0.9,0.9,0.9s0.9-0.4,0.9-0.9c0.1,1.2,1.3,2.2,2.6,2c0.6-0.1,1.1-0.4,1.5-0.9c0.5,0.6,1.4,0.8,2.3,0.3
			c0.2-0.1,0.4-0.3,0.5-0.5c0.6,1.3,2.2,1.9,3.8,0.9c0.1-0.1,0.3-0.2,0.4-0.4C133.4,83.4,130.7,80.7,128.2,82.3z"/>
	</g>
</g>
</svg>
